<svg width="211" height="225" viewBox="0 0 211 225" fill="none" xmlns="http://www.w3.org/2000/svg">
<path d="M100.999 158.667C100.999 158.667 147.665 135.2 147.665 100V58.9334L100.999 41.3334L54.332 58.9334V100C54.332 135.2 100.999 158.667 100.999 158.667Z" stroke="#DDE2EE" stroke-width="2" stroke-linecap="round" stroke-linejoin="round"/>
<path fill-rule="evenodd" clip-rule="evenodd" d="M121.276 84.9427L97.6668 108.552L85.3906 96.2761L87.2762 94.3905L97.6668 104.781L119.391 83.0571L121.276 84.9427Z" fill="#2C2C2C"/>
<g filter="url(#filter0_d_715_5095)">
<path d="M30.332 134.667C30.332 131.721 32.7198 129.333 35.6654 129.333H103.665C106.611 129.333 108.999 131.721 108.999 134.667V174.667C108.999 177.612 106.611 180 103.665 180H35.6654C32.7198 180 30.332 177.612 30.332 174.667V134.667Z" fill="white"/>
</g>
<g filter="url(#filter1_d_715_5095)">
<path d="M126.332 25.3333C126.332 22.3878 128.72 20 131.665 20H175.665C178.611 20 180.999 22.3878 180.999 25.3333V74.6667C180.999 77.6122 178.611 80 175.665 80H131.665C128.72 80 126.332 77.6122 126.332 74.6667V25.3333Z" fill="white"/>
</g>
<path d="M39.6641 140H99.6641V146.667H39.6641V140Z" fill="#D033A8"/>
<path d="M134.332 29.3334H152.999V46.6667H134.332V29.3334Z" fill="#D033A8"/>
<path d="M157 29.3334H174.333V33.3334H157V29.3334Z" fill="#F6D6EE"/>
<path d="M157 36H169V40H157V36Z" fill="#F6D6EE"/>
<path d="M134.332 50.6666H174.332V53.3333H134.332V50.6666Z" fill="#DDE2EE"/>
<path d="M134.332 56H163.665V58.6667H134.332V56Z" fill="#DDE2EE"/>
<path d="M134.332 61.3334H168.999V64H134.332V61.3334Z" fill="#DDE2EE"/>
<path d="M134.332 66.6666H156.999V69.3333H134.332V66.6666Z" fill="#DDE2EE"/>
<path d="M39.6641 149.333H78.3307V156H39.6641V149.333Z" fill="#D033A8"/>
<path d="M39.6641 161.333H99.6641V164H39.6641V161.333Z" fill="#DDE2EE"/>
<path d="M39.6641 166.667H86.3307V169.333H39.6641V166.667Z" fill="#DDE2EE"/>
<defs>
<filter id="filter0_d_715_5095" x="0.332031" y="114.333" width="138.668" height="110.667" filterUnits="userSpaceOnUse" color-interpolation-filters="sRGB">
<feFlood flood-opacity="0" result="BackgroundImageFix"/>
<feColorMatrix in="SourceAlpha" type="matrix" values="0 0 0 0 0 0 0 0 0 0 0 0 0 0 0 0 0 0 127 0" result="hardAlpha"/>
<feOffset dy="15"/>
<feGaussianBlur stdDeviation="15"/>
<feComposite in2="hardAlpha" operator="out"/>
<feColorMatrix type="matrix" values="0 0 0 0 0 0 0 0 0 0 0 0 0 0 0 0 0 0 0.1 0"/>
<feBlend mode="normal" in2="BackgroundImageFix" result="effect1_dropShadow_715_5095"/>
<feBlend mode="normal" in="SourceGraphic" in2="effect1_dropShadow_715_5095" result="shape"/>
</filter>
<filter id="filter1_d_715_5095" x="96.332" y="5" width="114.668" height="120" filterUnits="userSpaceOnUse" color-interpolation-filters="sRGB">
<feFlood flood-opacity="0" result="BackgroundImageFix"/>
<feColorMatrix in="SourceAlpha" type="matrix" values="0 0 0 0 0 0 0 0 0 0 0 0 0 0 0 0 0 0 127 0" result="hardAlpha"/>
<feOffset dy="15"/>
<feGaussianBlur stdDeviation="15"/>
<feComposite in2="hardAlpha" operator="out"/>
<feColorMatrix type="matrix" values="0 0 0 0 0 0 0 0 0 0 0 0 0 0 0 0 0 0 0.1 0"/>
<feBlend mode="normal" in2="BackgroundImageFix" result="effect1_dropShadow_715_5095"/>
<feBlend mode="normal" in="SourceGraphic" in2="effect1_dropShadow_715_5095" result="shape"/>
</filter>
</defs>
</svg>
